/* XPM */
static char * mc_xpm[] = {
"64 64 488 2",
"  	c #FFFFFF",
". 	c #C7421C",
"+ 	c #DF7338",
"@ 	c #DE8D44",
"# 	c #DE7E3D",
"$ 	c #CD4B24",
"% 	c #D55A2F",
"& 	c #E0823D",
"* 	c #DE8C3E",
"= 	c #DC6A35",
"- 	c #D6722F",
"; 	c #EDB43F",
"> 	c #F7BE46",
", 	c #F3BA3F",
"' 	c #F2BF41",
") 	c #F1BC46",
"! 	c #E58B3A",
"~ 	c #DEA39F",
"{ 	c #E8953E",
"] 	c #F3C046",
"^ 	c #F2BF44",
"/ 	c #F6BC44",
"( 	c #F2BA44",
"_ 	c #EEB03C",
": 	c #D6622F",
"< 	c #D57234",
"[ 	c #F7BA4C",
"} 	c #F8BF4B",
"| 	c #F5C549",
"1 	c #F3C347",
"2 	c #F5C446",
"3 	c #F6C144",
"4 	c #F5BB45",
"5 	c #E89945",
"6 	c #F0A344",
"7 	c #F5BF48",
"8 	c #F0C140",
"9 	c #F7C14A",
"0 	c #F2BE40",
"a 	c #F4C147",
"b 	c #F9B84C",
"c 	c #F4BA44",
"d 	c #D95E34",
"e 	c #D35D2A",
"f 	c #F6B64B",
"g 	c #EFBF40",
"h 	c #F4BD45",
"i 	c #E69137",
"j 	c #D35028",
"k 	c #DE7C36",
"l 	c #FAB649",
"m 	c #F1C040",
"n 	c #F6C043",
"o 	c #DD8C40",
"p 	c #E89A3C",
"q 	c #F2BF46",
"r 	c #F2C143",
"s 	c #F6B446",
"t 	c #D66A31",
"u 	c #CA5324",
"v 	c #EDA543",
"w 	c #F1C642",
"x 	c #F6BC48",
"y 	c #F1B440",
"z 	c #CC4625",
"A 	c #E7AA3C",
"B 	c #FAC149",
"C 	c #F3C242",
"D 	c #EDA04B",
"E 	c #DD8432",
"F 	c #F4C247",
"G 	c #F3BF42",
"H 	c #F9BE4A",
"I 	c #D66430",
"J 	c #D97534",
"K 	c #F8BF4A",
"L 	c #F3BF47",
"M 	c #F5BC46",
"N 	c #D56F31",
"O 	c #EFA749",
"P 	c #F1C23B",
"Q 	c #F5BC4E",
"R 	c #EB9E3C",
"S 	c #DC7A35",
"T 	c #F3C23F",
"U 	c #F6BE47",
"V 	c #F5BA45",
"W 	c #CD5B26",
"X 	c #F2B147",
"Y 	c #F5C245",
"Z 	c #EFBF3E",
"` 	c #F0A744",
" .	c #CE5F51",
"..	c #F6B54A",
"+.	c #F2C141",
"@.	c #F4BF44",
"#.	c #ECA03F",
"$.	c #DA7333",
"%.	c #F6BC45",
"&.	c #F4BF4A",
"*.	c #F4BC42",
"=.	c #D86833",
"-.	c #F4B144",
";.	c #EFA043",
">.	c #DC7B34",
",.	c #F3BF48",
"'.	c #F6C146",
").	c #F1C146",
"!.	c #DC753A",
"~.	c #E28C39",
"{.	c #F1BF3F",
"].	c #F6C244",
"^.	c #F2BA43",
"/.	c #D1622A",
"(.	c #F1B04C",
"_.	c #F9BF46",
":.	c #F2C042",
"<.	c #EEA442",
"[.	c #E18139",
"}.	c #F5BF4E",
"|.	c #D67438",
"1.	c #CE4129",
"2.	c #F0B946",
"3.	c #F5BB44",
"4.	c #F3BD44",
"5.	c #F1AF44",
"6.	c #CE5F52",
"7.	c #F2B843",
"8.	c #F7BF49",
"9.	c #F3BD3F",
"0.	c #EEAF41",
"a.	c #DA8C38",
"b.	c #F5BD42",
"c.	c #F3C044",
"d.	c #F4BE4C",
"e.	c #DB6434",
"f.	c #F1A644",
"g.	c #F1BB44",
"h.	c #F4BF48",
"i.	c #F8BA46",
"j.	c #CB4429",
"k.	c #EBA141",
"l.	c #F7C144",
"m.	c #F4BF45",
"n.	c #F7BB46",
"o.	c #D36933",
"p.	c #DA7C37",
"q.	c #F5C247",
"r.	c #F4BE47",
"s.	c #E48E3E",
"t.	c #D36431",
"u.	c #F3BA43",
"v.	c #F7BE4A",
"w.	c #E99D3D",
"x.	c #D15F27",
"y.	c #F5C046",
"z.	c #F6C049",
"A.	c #F2BD43",
"B.	c #F2A241",
"C.	c #DF7634",
"D.	c #F0C242",
"E.	c #F3BD47",
"F.	c #F5BF47",
"G.	c #EC9F44",
"H.	c #F5AF46",
"I.	c #F2BE42",
"J.	c #F4BE44",
"K.	c #F6BE48",
"L.	c #D65D31",
"M.	c #F1B140",
"N.	c #F3BC48",
"O.	c #F8BD43",
"P.	c #F2BB46",
"Q.	c #CC4521",
"R.	c #E7943E",
"S.	c #F4BF43",
"T.	c #F8C047",
"U.	c #F4C142",
"V.	c #DE8737",
"W.	c #D04B26",
"X.	c #EFC243",
"Y.	c #F7BD47",
"Z.	c #F5B946",
"`.	c #CF4527",
" +	c #D55D2E",
".+	c #F4C047",
"++	c #FAC147",
"@+	c #F8BD49",
"#+	c #F3B744",
"$+	c #EA9C3B",
"%+	c #F5BE47",
"&+	c #F7BC46",
"*+	c #F6C047",
"=+	c #DE8333",
"-+	c #F4B049",
";+	c #F6BE45",
">+	c #F6C044",
",+	c #D5622C",
"'+	c #ECB142",
")+	c #F7BF44",
"!+	c #F9C349",
"~+	c #DF753A",
"{+	c #E1853A",
"]+	c #F3C245",
"^+	c #F5BB46",
"/+	c #EBA93E",
"(+	c #DC7B36",
"_+	c #EEA345",
":+	c #F3C144",
"<+	c #F4B943",
"[+	c #DC8681",
"}+	c #E49E41",
"|+	c #F5C141",
"1+	c #F7BE43",
"2+	c #F1C041",
"3+	c #E89B48",
"4+	c #EFAF42",
"5+	c #F1C141",
"6+	c #F2BE46",
"7+	c #F3BD43",
"8+	c #E29337",
"9+	c #D3562D",
"0+	c #F5BF45",
"a+	c #F4BB47",
"b+	c #CC4623",
"c+	c #E18B37",
"d+	c #F3C042",
"e+	c #F3AD49",
"f+	c #E3853B",
"g+	c #EFC03E",
"h+	c #F5BF44",
"i+	c #F7BB47",
"j+	c #F5BE44",
"k+	c #F6BE46",
"l+	c #F0C348",
"m+	c #DC7533",
"n+	c #EDCECC",
"o+	c #F3B944",
"p+	c #F5C246",
"q+	c #D87135",
"r+	c #F2A33E",
"s+	c #EA9C3E",
"t+	c #DB7439",
"u+	c #F0BE3F",
"v+	c #F4C044",
"w+	c #D24C2B",
"x+	c #EDAC41",
"y+	c #F4BD41",
"z+	c #E69441",
"A+	c #CC4129",
"B+	c #F6B53F",
"C+	c #F7BE47",
"D+	c #DF8E34",
"E+	c #CF512A",
"F+	c #F5BE46",
"G+	c #F5BE45",
"H+	c #F5BB43",
"I+	c #E69F3D",
"J+	c #EEB041",
"K+	c #D66035",
"L+	c #F2C243",
"M+	c #FBBE4A",
"N+	c #F2BD49",
"O+	c #EEC341",
"P+	c #DC742C",
"Q+	c #EEAB44",
"R+	c #E58E38",
"S+	c #F6BF45",
"T+	c #CF4927",
"U+	c #DF813A",
"V+	c #F4C244",
"W+	c #F8BB43",
"X+	c #F2C047",
"Y+	c #F3BF45",
"Z+	c #D35724",
"`+	c #EFAD3E",
" @	c #E69B3E",
".@	c #D4752A",
"+@	c #F8BD48",
"@@	c #F4C045",
"#@	c #F4BF46",
"$@	c #D96B2D",
"%@	c #E79A38",
"&@	c #F3BE43",
"*@	c #F9BF44",
"=@	c #F2C343",
"-@	c #F8BA4A",
";@	c #F2E0DF",
">@	c #E9A13E",
",@	c #DE8F3F",
"'@	c #CC5F23",
")@	c #FBBC4B",
"!@	c #F2C142",
"~@	c #F3BF46",
"{@	c #FABF4B",
"]@	c #DF8B33",
"^@	c #EFAC40",
"/@	c #F8C14B",
"(@	c #F6BF49",
"_@	c #F5B842",
":@	c #E78F3F",
"<@	c #DD7E30",
"[@	c #CF5F51",
"}@	c #F5C042",
"|@	c #F5C04A",
"1@	c #F4BF49",
"2@	c #F7BF4C",
"3@	c #E59C37",
"4@	c #F2BB42",
"5@	c #F5BC4A",
"6@	c #F6C145",
"7@	c #EDAD3C",
"8@	c #E18533",
"9@	c #D96F2E",
"0@	c #F5BC44",
"a@	c #F1BD45",
"b@	c #F7BD49",
"c@	c #F6BF4A",
"d@	c #F1B041",
"e@	c #D7572F",
"f@	c #F0C43E",
"g@	c #F7BE4E",
"h@	c #F4BD46",
"i@	c #E7A33B",
"j@	c #DB7D2B",
"k@	c #F6BD45",
"l@	c #D76230",
"m@	c #EDB240",
"n@	c #F3C148",
"o@	c #F4B844",
"p@	c #F2BC46",
"q@	c #DC7F33",
"r@	c #F5BD44",
"s@	c #F7C341",
"t@	c #EA9140",
"u@	c #D76B2C",
"v@	c #D14B2D",
"w@	c #EEA63F",
"x@	c #F4C149",
"y@	c #F5BE42",
"z@	c #F0C046",
"A@	c #F7B94C",
"B@	c #D26326",
"C@	c #DF8738",
"D@	c #F5C03E",
"E@	c #E78D3B",
"F@	c #D5602B",
"G@	c #F5BD45",
"H@	c #F5BA44",
"I@	c #DB8680",
"J@	c #EA9D3D",
"K@	c #F5BD48",
"L@	c #D27329",
"M@	c #E49440",
"N@	c #F7BF46",
"O@	c #F5C047",
"P@	c #F3BF3D",
"Q@	c #E38938",
"R@	c #D35429",
"S@	c #F5BC45",
"T@	c #F3B943",
"U@	c #E6963D",
"V@	c #F2BE47",
"W@	c #F1BF43",
"X@	c #F7C148",
"Y@	c #DE8635",
"Z@	c #E9A03C",
"`@	c #F5C045",
" #	c #F5C343",
".#	c #E07935",
"+#	c #E7BAB8",
"@#	c #F5C048",
"##	c #F7BF48",
"$#	c #EFB23F",
"%#	c #E48A3D",
"&#	c #F6C549",
"*#	c #F2C041",
"=#	c #E49135",
"-#	c #EEAA3E",
";#	c #F6C046",
">#	c #D96D2E",
",#	c #F4BF47",
"'#	c #EEB13E",
")#	c #E18637",
"!#	c #F5C147",
"~#	c #F3C041",
"{#	c #E99D38",
"]#	c #F2B341",
"^#	c #F6BF46",
"/#	c #D5622B",
"(#	c #F3B842",
"_#	c #F3BD46",
":#	c #EDAC3F",
"<#	c #DF8035",
"[#	c #F4BF42",
"}#	c #EDA93C",
"|#	c #F4B742",
"1#	c #D6562F",
"2#	c #F0B33F",
"3#	c #F4C046",
"4#	c #F4BB46",
"5#	c #F5C143",
"6#	c #EEA041",
"7#	c #DB7231",
"8#	c #F6C246",
"9#	c #EEAF3E",
"0#	c #DA8680",
"a#	c #F3BE40",
"b#	c #D24D2A",
"c#	c #EFB23D",
"d#	c #F4BD44",
"e#	c #F7BE49",
"f#	c #F3BF41",
"g#	c #EA9C3D",
"h#	c #D46B29",
"i#	c #F4B242",
"j#	c #D15027",
"k#	c #F3BE45",
"l#	c #CE4126",
"m#	c #F8F0F0",
"n#	c #EFAF3F",
"o#	c #F7C048",
"p#	c #F4BE43",
"q#	c #E7993B",
"r#	c #D36428",
"s#	c #F2C043",
"t#	c #F5B644",
"u#	c #D26029",
"v#	c #F6BD47",
"w#	c #F0AA42",
"x#	c #E7983D",
"y#	c #D75F2D",
"z#	c #F1BF40",
"A#	c #F6BF47",
"B#	c #F4BB43",
"C#	c #F9F0F0",
"D#	c #D6652C",
"E#	c #F5BF46",
"F#	c #F4BE46",
"G#	c #F4BB45",
"H#	c #EFA941",
"I#	c #F5C044",
"J#	c #F6BC46",
"K#	c #E6973C",
"L#	c #D04123",
"M#	c #D86B2D",
"N#	c #F0A63E",
"O#	c #F6BD49",
"P#	c #E89244",
"Q#	c #D3562B",
"R#	c #F7BE48",
"S#	c #D14A26",
"T#	c #D86E2D",
"U#	c #F7B845",
"V#	c #EEA641",
"W#	c #F3BB4B",
"X#	c #F4BC48",
"Y#	c #F2BB41",
"Z#	c #E38C38",
"`#	c #CE4A28",
" $	c #D05026",
".$	c #F7C045",
"+$	c #F3BF44",
"@$	c #F5B743",
"#$	c #E4BAB7",
"$$	c #ECCECC",
"%$	c #EBCECC",
"&$	c #CD4926",
"*$	c #F7BC48",
"=$	c #D25127",
"-$	c #D97337",
";$	c #F3C043",
">$	c #F5BE41",
",$	c #F4B941",
"'$	c #D14427",
")$	c #F1BF44",
"!$	c #F7BF43",
"~$	c #F4C043",
"{$	c #D15728",
"]$	c #D86738",
"^$	c #EB9F3F",
"/$	c #ECA242",
"($	c #ED9D43",
"_$	c #E9953A",
":$	c #E5BAB7",
"<$	c #ED9D42",
"[$	c #EFA243",
"}$	c #D25327",
"                                                                                                                                ",
"                                                                                                                                ",
"                                                                                                                                ",
"                                                                                                                                ",
"                                                                                                                                ",
"                                                                                                                                ",
"                                                                                                                                ",
"                                                                                                                                ",
"                                                                                                                                ",
"                                                                                                                                ",
"                                                                                                                                ",
"                                                                                                                                ",
"                                                                                                                                ",
"                                        . + @ # $                             % & * =                                           ",
"                                      - ; > , ' ) !                       ~ { ] ^ / ( _ :                                       ",
"                                    < [ } | 1 2 3 4 5                     6 7 8 9 0 a b c d                                     ",
"                                  e f g h i j k l m n o                 p q r s t u v w x y z                                   ",
"                                  A B C D       E F G H I             J K L M N       O P Q R                                   ",
"                                S T U V W         X Y Z `            ...+.@.#.        $.%.&.*.=.                                ",
"                                -.^ ^ ;.          >.,.'.).!.        ~.{.].^./.          (._.:.<.                                ",
"                              [.] }.' |.          1.2.3.4.5.      6.7.8.9.0.            a.b.c.d.e.                              ",
"                              f.g.h.i.j.            k.l.m.n.o.    p.q.r.n s.            t.u.v.F w.                              ",
"                            x.y.z.A.B.              C.D.E.F.G.    H.I.J.K.L.              M.N.O.P.Q.                            ",
"                            R.S.T.U.V.              W.X.Y.h.Z.`. +.+++@+#+                $+%+&+*+=+                            ",
"                            -+;+;+>+,+                '+)+!+m.~+{+]+;+^+/+                (+U ;+;+_+                            ",
"                           +:+;+;+<+[+                }+|+1+2+3+4+5+6+7+8+                9+0+;+;+a+b+                          ",
"                          c+d+;+;+e+                  f+g+;+h+i+;+j+k+l+m+                n+o+;+;+p+q+                          ",
"                          r+j+;+;+s+                  t+u+;+;+;+;+;+;+v+w+                  x+;+;+y+z+                          ",
"                        A+B+C+;+;+D+                  E+F+;+;+;+;+;+G+H+                    I+;+;+/ J+                          ",
"                        K+L+M+N+O+P+                    3.;+;+;+;+;+j+Q+                    R+J.*+F.S+T+                        ",
"                        U+V+W+X+Y+Z+                    `+;+;+;+;+;+G+ @                    .@+@@@#@Y.$@                        ",
"                        %@&@*@=@-@;@                    >@k+;+;+;+;+G+,@                    '@)@!@~@{@]@                        ",
"                        ^@/@S+(@_@                      :@;+;+;+;+;+j+<@                    [@}@|@1@2@3@                        ",
"                        4@5@6@K.7@                      8@;+;+;+;+;+;+9@                      0@a@b@c@d@                        ",
"                      e@f@g@G h@i@                      j@;+;+;+;+;+k@l@                      m@n@o@1@p@                        ",
"                      q@r@r@F.s@t@                      u@G+;+;+;+;+4 v@                      w@x@y@z@A@B@                      ",
"                      C@;+;+F.D@E@                      F@G@;+;+;+;+H@I@                      J@,.&@a K@L@                      ",
"                      M@N@N@O@P@Q@                      R@S@;+;+k+k+T@                        U@V@W@X@v+Y@                      ",
"                      Z@;+;+`@ #.#                      +#H@;+;+@###$#                        %#&#*#;+;+=#                      ",
"                      -#;+;+;#0+>#                        c ;+;+,#U '#                        )#!#~#;+;+{#                      ",
"                      ]#;+;+^#F+/#                        (#;+S+_#G+:#                        <##@[#;+;+}#                      ",
"                      |#;+;+&@'.1#                        2#S+3#4#5#6#                        7#8#;#;+;+9#                      ",
"                    0#a#;+;+&@'.b#                        c#d#Y+e#f#g#                        h#v+0+;+;+i#                      ",
"                    j#U.;+;+k#F.l#                      m#n#h+k#o#p#q#                        r#s#0+;+;+t#                      ",
"                    u#^#;+;+#@v#                          w#6@%+m.Y.x#                        y#z#A#;+;+B#C#                    ",
"                    D#E#;+;+F#G#                          H#I#h@J.J#K#                        y#z#A#;+;+;+L#                    ",
"                    M#0+;+;+m.V                           N#k+k+U O#P#                        Q#*#R#;+;+`@S#                    ",
"                    T#S+;+;+@@U#                          V#W#X#Y#^ Z#                        `#!@@+;+;+h+ $                    ",
"                    9@.$;+;++$@$                            #$$$$$%$                          &$2+*$;+;+`@=$                    ",
"                    -$;$>$>$S.,$                                                              '$)$!$>$>$~${$                    ",
"                    ]$^$/$/$($_$                                                              :$<$6#/$/$[$}$                    ",
"                                                                                                                                ",
"                                                                                                                                ",
"                                                                                                                                ",
"                                                                                                                                ",
"                                                                                                                                ",
"                                                                                                                                ",
"                                                                                                                                ",
"                                                                                                                                ",
"                                                                                                                                ",
"                                                                                                                                ",
"                                                                                                                                ",
"                                                                                                                                ",
"                                                                                                                                "};
